# xmcd
#
# Track frame offsets:
#	150
#	20165
#	36255
#	52435
#	67150
#	88255
#	115645
#	134227
#	151135
#	169200
#
# Disc length: 2367 seconds
#
# Revision: 2021
# Processed by: cddbd v1.5.2PL0 Copyright (c) Steve Scherf et al.
# Submitted via: EZCDAudioConverter 3.1.4.1
#
DISCID=99093d0a
DTITLE=Various Artists / Pretty In Pink (Original Motion Picture Soundtrack)
DYEAR=1988
DGENRE=Soundtrack
TTITLE0=Orchestral Manoeuvres In The Dark / If You Leave
TTITLE1=Suzanne Vega / Left Of Center
TTITLE2=Jesse Johnson / Get To Know Ya
TTITLE3=INXS / Do Wot You Do
TTITLE4=The Psychedelic Furs / Pretty In Pink
TTITLE5=New Order / Shell-Shock
TTITLE6=Belouis Some / Round, Round
TTITLE7=Danny Hutton Hitters / Wouldn't It Be Good
TTITLE8=Echo & The Bunnymen / Bring On The Dancing Horses
TTITLE9=The Smiths / Please Please Please Let Me Get What I Want
EXTD=
EXTT0=
EXTT1=
EXTT2=
EXTT3=
EXTT4=
EXTT5=
EXTT6=
EXTT7=
EXTT8=
EXTT9=
PLAYORDER=
.
